{"title":"Jal (2014) Hindi Movie S-CAM xviD-[MVR]","uid":9907064,"size":304855616,"categoryP":"video","categoryS":"movies","magnet":"?xt=urn:btih:85776d2923b8f2a01b7a2d35d22779bc60a127bc&amp;dn=Jal+%282014%29+Hindi+Movie+S-CAM+xviD-%5BMVR%5D&amp;tr=udp%3A%2F%2Ftracker.openbittorrent.com%3A80&amp;tr=udp%3A%2F%2Fopen.demonii.com%3A1337&amp;tr=udp%3A%2F%2Ftracker.coppersurfer.tk%3A6969&amp;tr=udp%3A%2F%2Fexodus.desync.com%3A6969","seeders":1,"leechers":0,"uploader":"InMp3HitZ","files":22,"time":1396831124,"description":"Jal (2014) Hindi Movie S-CAM xviD-[MVR]\n\nScreens:\n &lt;a href=&quot;\nhttp://ultraimg.com/images/VBoNy.png&quot; rel=&quot;nofollow&quot; target=&quot;_NEW&quot;&gt;\nhttp://ultraimg.com/images/VBoNy.png&lt;/a&gt; &lt;a href=&quot;\nhttp://ultraimg.com/images/Afm8w.png&quot; rel=&quot;nofollow&quot; target=&quot;_NEW&quot;&gt;\nhttp://ultraimg.com/images/Afm8w.png&lt;/a&gt; &lt;a href=&quot;\nhttp://ultraimg.com/images/cXH1.png&quot; rel=&quot;nofollow&quot; target=&quot;_NEW&quot;&gt;\nhttp://ultraimg.com/images/cXH1.png&lt;/a&gt; &lt;a href=&quot;\nhttp://ultraimg.com/images/PlCU.png&quot; rel=&quot;nofollow&quot; target=&quot;_NEW&quot;&gt;\nhttp://ultraimg.com/images/PlCU.png&lt;/a&gt; &lt;a href=&quot;\nhttp://ultraimg.com/images/ySRd9.png&quot; rel=&quot;nofollow&quot; target=&quot;_NEW&quot;&gt;\nhttp://ultraimg.com/images/ySRd9.png&lt;/a&gt; &lt;a href=&quot;\nhttp://ultraimg.com/images/boe2.png&quot; rel=&quot;nofollow&quot; target=&quot;_NEW&quot;&gt;\nhttp://ultraimg.com/images/boe2.png&lt;/a&gt; &lt;a href=&quot;\nhttp://ultraimg.com/images/l2bfD.png&quot; rel=&quot;nofollow&quot; target=&quot;_NEW&quot;&gt;\nhttp://ultraimg.com/images/l2bfD.png&lt;/a&gt; &lt;a href=&quot;\nhttp://ultraimg.com/images/khrcX.png&quot; rel=&quot;nofollow&quot; target=&quot;_NEW&quot;&gt;\nhttp://ultraimg.com/images/khrcX.png&lt;/a&gt; &lt;a href=&quot;\nhttp://ultraimg.com/images/G0Fdv.png&quot; rel=&quot;nofollow&quot; target=&quot;_NEW&quot;&gt;\nhttp://ultraimg.com/images/G0Fdv.png&lt;/a&gt; &lt;a href=&quot;\nhttp://ultraimg.com/images/c7fys.png&quot; rel=&quot;nofollow&quot; target=&quot;_NEW&quot;&gt;\nhttp://ultraimg.com/images/c7fys.png&lt;/a&gt; &lt;a href=&quot;\nhttp://ultraimg.com/images/H92SB.png&quot; rel=&quot;nofollow&quot; target=&quot;_NEW&quot;&gt;\nhttp://ultraimg.com/images/H92SB.png&lt;/a&gt; &lt;a href=&quot;\nhttp://ultraimg.com/images/gHrhX.png&quot; rel=&quot;nofollow&quot; target=&quot;_NEW&quot;&gt;\nhttp://ultraimg.com/images/gHrhX.png&lt;/a&gt; &lt;a href=&quot;\nhttp://ultraimg.com/images/dbvKs.png&quot; rel=&quot;nofollow&quot; target=&quot;_NEW&quot;&gt;\nhttp://ultraimg.com/images/dbvKs.png&lt;/a&gt; &lt;a href=&quot;\nhttp://ultraimg.com/images/jBrIe.png&quot; rel=&quot;nofollow&quot; target=&quot;_NEW&quot;&gt;\nhttp://ultraimg.com/images/jBrIe.png&lt;/a&gt; &lt;a href=&quot;\nhttp://ultraimg.com/images/IYEzG.png&quot; rel=&quot;nofollow&quot; target=&quot;_NEW&quot;&gt;\nhttp://ultraimg.com/images/IYEzG.png&lt;/a&gt; &lt;a href=&quot;\nhttp://ultraimg.com/images/6v7R.png&quot; rel=&quot;nofollow&quot; target=&quot;_NEW&quot;&gt;\nhttp://ultraimg.com/images/6v7R.png&lt;/a&gt; &lt;a href=&quot;\nhttp://ultraimg.com/images/ByZ8.png&quot; rel=&quot;nofollow&quot; target=&quot;_NEW&quot;&gt;\nhttp://ultraimg.com/images/ByZ8.png&lt;/a&gt; &lt;a href=&quot;\nhttp://ultraimg.com/images/mu0Co.png&quot; rel=&quot;nofollow&quot; target=&quot;_NEW&quot;&gt;\nhttp://ultraimg.com/images/mu0Co.png&lt;/a&gt; &lt;a href=&quot;\nhttp://ultraimg.com/images/b7h0K.png&quot; rel=&quot;nofollow&quot; target=&quot;_NEW&quot;&gt;\nhttp://ultraimg.com/images/b7h0K.png&lt;/a&gt; &lt;a href=&quot;\nhttp://ultraimg.com/images/hYOPW.png&quot; rel=&quot;nofollow&quot; target=&quot;_NEW&quot;&gt;\nhttp://ultraimg.com/images/hYOPW.png&lt;/a&gt;\n\nNFO:\n\nFormat                                   : Flash Video\nFile size                                : 285 MiB\nDuration                                 : 2h 8mn\nOverall bit rate                         : 310 Kbps\nWriting application                      : XVideoSharing\nTagging application                      : Yet Another Metadata Injector for FLV - Version 1.9\n\nVideo\nFormat                                   : AVC\nFormat/Info                              : Advanced Video Codec\nFormat profile                           : &lt;a class=&quot;__cf_email__&quot; href=&quot;/cdn-cgi/l/email-protection&quot; data-cfemail=&quot;bef6d7d9d6fef28d908e&quot;&gt;[email&amp;#160;protected]&lt;/a&gt;&lt;script cf-hash='f9e31' type=&quot;text/javascript&quot;&gt;\n/* &lt;![CDATA[ */!function(){try{var t=&quot;currentScript&quot;in document?document.currentScript:function(){for(var t=document.getElementsByTagName(&quot;script&quot;),e=t.length;e--;)if(t[e].getAttribute(&quot;cf-hash&quot;))return t[e]}();if(t&amp;&amp;t.previousSibling){var e,r,n,i,c=t.previousSibling,a=c.getAttribute(&quot;data-cfemail&quot;);if(a){for(e=&quot;&quot;,r=parseInt(a.substr(0,2),16),n=2;a.length-n;n+=2)i=parseInt(a.substr(n,2),16)^r,e+=String.fromCharCode(i);e=document.createTextNode(e),c.parentNode.replaceChild(e,c)}}}catch(u){}}();/* ]]&gt; */&lt;/script&gt;\nFormat settings, CABAC                   : Yes\nFormat settings, ReFrames                : 4 frames\nCodec ID                                 : 7\nDuration                                 : 2h 8mn\nBit rate                                 : 230 Kbps\nWidth                                    : 528 pixels\nHeight                                   : 352 pixels\nDisplay aspect ratio                     : 4:3\nFrame rate mode                          : Constant\nFrame rate                               : 29.970 fps\nColor space                              : YUV\nChroma subsampling                       : 4:2:0\nBit depth                                : 8 bits\nScan type                                : Progressive\nBits/(Pixel*Frame)                       : 0.041\nStream size                              : 219 MiB (77%)\nWriting library                          : x264 core 142 r14 956c8d8\nEncoding settings                        : cabac=1 / ref=1 / deblock=1:0:0 / analyse=0x3:0x113 / me=hex / subme=2 / psy=1 / psy_rd=1.00:0.00 / mixed_ref=0 / me_range=16 / chroma_me=1 / trellis=0 / 8x8dct=1 / cqm=0 / deadzone=21,11 / fast_pskip=1 / chroma_qp_offset=0 / threads=12 / lookahead_threads=2 / sliced_threads=0 / nr=0 / decimate=1 / interlaced=0 / bluray_compat=0 / constrained_intra=0 / bframes=3 / b_pyramid=2 / b_adapt=1 / b_bias=0 / direct=1 / weightb=1 / open_gop=0 / weightp=1 / keyint=250 / keyint_min=25 / scenecut=40 / intra_refresh=0 / rc_lookahead=10 / rc=crf / mbtree=1 / crf=22.0 / qcomp=0.60 / qpmin=0 / qpmax=69 / qpstep=4 / ip_ratio=1.40 / aq=1:1.00\n\nAudio\nFormat                                   : AAC\nFormat/Info                              : Advanced Audio Codec\nFormat profile                           : LC\nCodec ID                                 : 10\nDuration                                 : 2h 8mn\nBit rate                                 : 63.2 Kbps\nChannel(s)                               : 2 channels\nChannel positions                        : Front: L R\nSampling rate                            : 48.0 KHz\nCompression mode                         : Lossy\nDelay relative to video                  : 34ms\nStream size                              : 63.3 MiB (22%)\n\n\n","torrent":{"xt":"urn:btih:85776d2923b8f2a01b7a2d35d22779bc60a127bc","amp;dn":"Jal+%282014%29+Hindi+Movie+S-CAM+xviD-%5BMVR%5D","amp;tr":["udp%3A%2F%2Ftracker.openbittorrent.com%3A80","udp%3A%2F%2Fopen.demonii.com%3A1337","udp%3A%2F%2Ftracker.coppersurfer.tk%3A6969","udp%3A%2F%2Fexodus.desync.com%3A6969"],"infoHash":"85776d2923b8f2a01b7a2d35d22779bc60a127bc","infoHashBuffer":{"type":"Buffer","data":[133,119,109,41,35,184,242,160,27,122,45,53,210,39,121,188,96,161,39,188]},"announce":[],"urlList":[]}}